<?xml version="1.0" standalone="no"?>
<!DOCTYPE svg PUBLIC "-//W3C//DTD SVG 20010904//EN"
 "http://www.w3.org/TR/2001/REC-SVG-20010904/DTD/svg10.dtd">
<svg version="1.0" xmlns="http://www.w3.org/2000/svg"
 width="500.000000pt" height="500.000000pt" viewBox="0 0 500.000000 500.000000"
 preserveAspectRatio="xMidYMid meet">

<g transform="translate(0.000000,500.000000) scale(0.100000,-0.100000)"
fill="#000000" stroke="none">
<path d="M823 4823 c-10 -3 -13 -45 -13 -161 0 -86 3 -167 6 -179 6 -23 9 -23
154 -23 113 0 150 -3 159 -14 8 -10 11 -335 11 -1231 0 -670 3 -1222 7 -1226
5 -5 103 -10 218 -11 199 -3 210 -4 214 -23 2 -10 -4 -33 -12 -50 -9 -16 -22
-46 -30 -65 -8 -19 -27 -62 -42 -95 -28 -63 -45 -103 -69 -157 -8 -18 -17 -43
-21 -55 -3 -12 -18 -32 -33 -44 -25 -19 -37 -20 -167 -18 l-140 3 0 -182 0
-183 545 0 545 0 3 181 c2 140 0 180 -10 181 -7 0 -69 0 -138 -1 -69 -1 -133
2 -142 5 -30 12 -19 61 38 167 8 14 14 33 14 41 0 9 7 29 15 46 8 17 22 45 30
62 8 17 15 36 15 42 0 7 9 29 20 50 11 20 20 43 20 50 0 8 8 21 18 31 17 15
70 16 603 14 l584 -3 19 -40 c10 -22 25 -53 32 -68 8 -16 14 -36 14 -46 0 -9
7 -26 15 -37 8 -10 15 -26 15 -34 0 -8 9 -32 20 -53 11 -20 20 -41 20 -47 0
-5 14 -39 30 -73 17 -35 30 -71 30 -79 0 -23 -40 -30 -169 -28 -64 1 -124 1
-133 1 -16 -1 -18 -17 -18 -181 0 -137 3 -180 13 -180 6 0 255 -1 552 -1 l540
-1 3 181 2 181 -149 0 c-175 0 -176 0 -214 100 -26 67 -81 200 -97 235 -5 11
-21 49 -35 85 -14 36 -30 74 -35 85 -5 11 -19 45 -30 75 -12 30 -28 69 -35 85
-40 88 -55 125 -55 137 0 8 -4 18 -9 24 -5 5 -21 41 -36 79 -15 39 -35 88 -45
110 -9 22 -25 58 -34 80 -9 22 -23 53 -31 68 -8 16 -15 35 -15 43 0 12 -22 62
-56 126 -8 14 -14 33 -14 41 0 9 -7 28 -15 44 -8 15 -22 46 -31 68 -9 22 -24
58 -34 80 -9 22 -27 65 -39 95 -13 30 -29 68 -37 83 -8 16 -14 35 -14 44 0 8
-6 27 -14 41 -29 54 -56 119 -56 134 0 9 -7 21 -15 28 -8 7 -15 20 -15 29 -1
9 -9 34 -20 56 -11 22 -19 45 -20 52 0 6 -6 24 -14 40 -37 73 -126 288 -126
302 0 6 -9 15 -19 21 -24 13 -840 14 -860 1 -21 -14 -22 -348 -1 -357 8 -3 71
-5 140 -4 69 1 133 -2 143 -5 21 -9 23 -58 2 -75 -8 -7 -15 -18 -15 -25 0 -8
-6 -26 -14 -42 -13 -25 -27 -57 -72 -160 -8 -18 -20 -48 -28 -65 -8 -18 -21
-49 -29 -68 -15 -35 -55 -126 -84 -190 -9 -19 -20 -42 -25 -50 -4 -8 -11 -22
-14 -30 -3 -8 -12 -28 -20 -43 -7 -16 -14 -33 -14 -39 0 -6 -9 -29 -19 -52
-48 -102 -61 -133 -61 -144 0 -7 -4 -12 -9 -12 -5 0 -13 -15 -16 -32 -4 -18
-11 -37 -15 -43 -4 -5 -20 -39 -35 -75 -39 -95 -46 -100 -127 -100 -37 0 -69
1 -70 3 -2 1 -5 558 -8 1237 l-5 1235 -380 2 c-209 1 -386 -1 -392 -4z m1847
-1440 c11 -38 30 -82 56 -136 8 -16 14 -34 14 -40 1 -7 9 -30 20 -52 11 -22
19 -45 20 -52 0 -6 7 -24 15 -40 8 -15 30 -71 50 -123 20 -52 42 -108 50 -125
7 -16 19 -47 25 -67 6 -21 16 -40 21 -43 5 -4 9 -15 9 -25 0 -10 6 -31 14 -47
35 -70 56 -121 56 -136 0 -9 4 -18 9 -21 5 -3 16 -29 26 -58 16 -50 16 -53 -1
-65 -10 -7 -25 -11 -32 -8 -8 3 -193 5 -413 5 -354 0 -400 2 -406 16 -3 8 -1
25 5 37 24 48 52 116 52 126 0 5 6 22 14 38 23 47 44 95 66 153 53 134 85 211
106 253 8 16 14 34 14 40 1 7 9 30 20 52 11 22 19 45 20 52 0 6 6 24 14 40 33
66 56 121 56 134 0 8 7 23 15 33 8 11 15 28 15 39 0 62 52 77 70 20z"/>
<path d="M72 711 c-8 -5 -3 -16 18 -36 l30 -29 0 -143 0 -142 -30 -16 c-17 -9
-28 -20 -25 -25 9 -15 152 -13 161 2 4 6 3 13 -3 15 -34 12 -45 31 -46 81 0
28 2 55 6 59 4 4 35 9 68 11 58 4 60 5 57 31 -3 22 -7 26 -33 23 -16 -1 -45 0
-62 3 -32 6 -33 7 -33 60 0 62 13 75 78 75 35 0 41 -4 52 -30 9 -21 19 -30 36
-30 21 0 24 5 24 40 0 29 -5 42 -19 50 -22 11 -261 13 -279 1z"/>
<path d="M416 711 c-3 -5 3 -20 14 -34 18 -22 20 -41 20 -170 0 -131 -2 -146
-20 -162 -29 -26 -16 -35 50 -35 65 0 86 15 52 38 -21 14 -22 21 -22 187 0
171 0 173 -22 179 -33 8 -66 7 -72 -3z"/>
<path d="M652 711 c-20 -12 -10 -46 13 -46 14 0 20 7 20 24 0 27 -13 35 -33
22z"/>
<path d="M1192 711 c-10 -6 -7 -15 14 -40 27 -32 27 -34 25 -164 -1 -125 -3
-133 -26 -157 -14 -15 -22 -29 -18 -33 10 -11 121 -8 128 3 4 6 -3 19 -16 28
-15 13 -23 33 -27 70 -6 62 1 91 28 120 33 35 124 28 136 -12 13 -39 5 -158
-11 -176 -28 -31 -18 -40 44 -40 33 0 63 5 66 10 3 6 -3 22 -14 36 -17 21 -21
41 -21 97 0 82 -21 126 -74 151 -43 20 -70 20 -90 0 -9 -8 -26 -14 -38 -12
-20 3 -23 10 -26 58 -2 30 -9 58 -15 62 -16 10 -49 10 -65 -1z"/>
<path d="M1647 714 c-4 -4 -7 -22 -7 -40 0 -23 -7 -38 -25 -52 -24 -19 -35
-62 -16 -62 5 0 17 -7 25 -16 13 -12 16 -38 16 -118 0 -104 7 -126 41 -126 9
0 23 7 30 16 11 14 10 18 -9 33 -21 16 -23 23 -20 111 l3 95 28 3 c21 3 27 9
27 27 0 18 -7 25 -29 30 -27 6 -30 11 -33 52 -3 44 -15 62 -31 47z"/>
<path d="M2118 713 c-16 -4 -16 -7 4 -42 l21 -37 -26 -56 c-15 -31 -27 -60
-27 -65 0 -22 -66 -137 -92 -158 -25 -21 -28 -28 -18 -40 15 -18 125 -21 136
-4 3 6 -2 26 -12 45 -17 32 -17 35 -1 51 18 18 126 30 172 19 36 -9 44 -50 15
-81 -22 -23 -22 -23 -2 -34 12 -6 45 -11 75 -11 43 0 56 4 61 17 6 16 -26 52
-46 53 -3 0 -12 17 -19 38 -6 20 -15 42 -19 47 -4 6 -11 21 -15 35 -4 14 -20
54 -36 88 -17 35 -33 77 -36 93 -3 16 -14 34 -24 39 -18 10 -79 12 -111 3z
m108 -110 c3 -10 12 -32 21 -49 24 -51 15 -69 -37 -72 -66 -3 -72 4 -55 62 8
27 20 55 26 62 16 19 39 17 45 -3z"/>
<path d="M3464 705 c-4 -9 2 -25 15 -39 24 -26 27 -58 7 -75 -10 -9 -16 -8
-26 4 -20 25 -124 20 -161 -7 -107 -79 -88 -231 36 -282 47 -20 68 -20 106 0
26 13 38 14 80 3 39 -10 52 -10 61 -1 10 10 9 17 -2 35 -11 16 -16 66 -20 197
l-5 175 -43 3 c-31 2 -44 -1 -48 -13z m5 -177 c46 -49 43 -98 -8 -149 -49 -50
-83 -51 -135 -6 -34 29 -38 37 -38 81 -1 43 3 53 31 78 24 22 41 28 76 28 37
0 49 -5 74 -32z"/>
<path d="M875 604 c-49 -25 -80 -61 -94 -109 -12 -39 -11 -50 4 -87 9 -24 30
-54 47 -68 32 -26 112 -52 125 -39 4 4 25 11 46 14 32 6 37 5 37 -12 0 -11
-10 -29 -23 -41 -29 -27 -126 -31 -151 -7 -13 14 -66 22 -66 10 0 -21 50 -56
95 -66 73 -16 142 7 178 59 24 35 26 45 26 162 1 95 4 127 15 135 8 6 16 20
18 30 2 16 -4 21 -26 23 -16 2 -33 -1 -39 -7 -15 -15 -50 -14 -83 4 -37 19
-71 19 -109 -1z m123 -61 c107 -67 3 -252 -105 -188 -73 43 -90 117 -40 171
41 43 94 50 145 17z"/>
<path d="M600 587 c0 -12 9 -28 20 -35 17 -11 20 -23 20 -95 0 -59 -5 -89 -16
-105 -22 -31 -10 -42 46 -42 55 0 72 15 41 36 -19 14 -21 25 -21 114 0 127 -8
150 -55 150 -30 0 -35 -3 -35 -23z"/>
<path d="M2529 587 c-46 -38 -62 -73 -61 -132 0 -43 6 -61 28 -90 29 -39 93
-75 131 -75 41 0 143 65 143 91 0 28 -15 31 -43 9 -14 -11 -30 -20 -35 -20 -5
0 -15 -7 -22 -15 -19 -23 -59 -18 -101 11 -59 40 -64 118 -13 169 33 33 109
35 148 4 39 -31 60 -22 64 26 l3 40 -108 2 c-99 2 -110 0 -134 -20z"/>
<path d="M2896 590 c-35 -22 -79 -96 -78 -132 1 -33 33 -97 64 -124 12 -12 40
-28 61 -35 31 -11 43 -11 70 1 34 14 73 16 124 5 40 -9 53 13 29 50 -11 17
-16 48 -16 106 0 71 3 83 22 98 48 40 -15 69 -78 36 -25 -13 -30 -13 -44 0
-24 21 -118 18 -154 -5z m159 -57 c52 -56 46 -126 -13 -167 -21 -14 -46 -26
-56 -26 -30 0 -81 37 -101 73 -22 42 -16 74 24 116 24 26 36 31 75 31 36 0 50
-5 71 -27z"/>
<path d="M3680 572 c-41 -36 -44 -42 -48 -100 -4 -56 -2 -67 24 -103 15 -22
46 -49 68 -60 41 -20 101 -25 110 -10 3 5 17 12 31 15 31 8 68 43 59 57 -7 12
-61 2 -89 -17 -28 -20 -64 -17 -102 9 -24 16 -33 28 -31 45 3 22 7 23 116 26
110 4 142 13 142 41 0 25 -33 76 -68 105 -33 27 -44 30 -103 30 -63 0 -69 -2
-109 -38z m191 -33 c5 -8 8 -23 7 -34 -3 -18 -11 -20 -88 -20 -79 0 -85 1 -88
22 -5 36 34 55 101 50 36 -2 62 -9 68 -18z"/>
<path d="M4003 593 c-4 -11 3 -23 20 -37 25 -20 27 -28 27 -90 0 -52 -5 -77
-21 -103 -31 -49 -20 -63 46 -63 65 0 80 18 46 54 -17 18 -21 35 -21 90 0 58
3 70 25 91 15 16 36 25 55 25 19 0 40 -9 55 -25 21 -21 25 -33 25 -88 0 -50
-5 -70 -21 -91 -32 -41 -19 -56 46 -56 63 0 80 17 49 51 -13 14 -19 40 -22 87
-3 61 -1 70 23 95 14 15 36 27 48 27 63 -1 81 -22 93 -108 6 -48 -9 -91 -41
-115 -18 -13 27 -37 71 -37 42 0 79 24 58 38 -32 22 -44 59 -44 133 0 69 -3
80 -27 108 -25 28 -33 31 -85 31 -32 0 -58 -4 -58 -8 0 -19 -49 -32 -75 -20
-14 6 -25 15 -25 20 0 12 -88 10 -109 -4 -15 -9 -25 -9 -46 0 -38 17 -84 15
-92 -5z"/>
<path d="M4600 586 c0 -18 8 -27 30 -35 18 -6 30 -17 30 -28 1 -10 9 -36 20
-58 11 -22 19 -47 20 -55 0 -9 7 -26 16 -38 10 -15 14 -39 12 -74 -3 -46 -6
-53 -28 -58 -27 -6 -42 -49 -18 -51 100 -11 143 4 121 40 -17 27 -16 67 1 99
8 15 23 47 34 72 11 25 30 68 42 96 14 32 32 56 47 63 15 7 23 18 21 29 -3 14
-16 18 -71 20 -63 3 -67 2 -67 -18 0 -12 6 -28 14 -36 14 -13 12 -47 -4 -69
-4 -5 -13 -27 -19 -47 -7 -21 -18 -38 -26 -38 -30 0 -72 117 -54 151 5 10 9
27 9 38 0 19 -6 21 -65 21 -62 0 -65 -1 -65 -24z"/>
</g>
</svg>
